<svg width="42" height="63" viewBox="0 0 42 63" fill="none" xmlns="http://www.w3.org/2000/svg">
<path d="M21 63L2.81345 31.5L39.1865 31.5L21 63Z" fill="#68AA40" fill-opacity="0.95"/>
<circle cx="21" cy="21" r="21" fill="#68AA40" fill-opacity="0.95"/>
<path d="M16.8105 16V9.136L15.1905 10.132V8.332L16.8105 7.36H18.4785V16H16.8105ZM22.7997 16.156C22.3677 16.156 21.9557 16.07 21.5637 15.898C21.1717 15.722 20.8297 15.476 20.5377 15.16C20.2497 14.844 20.0437 14.472 19.9197 14.044L21.5037 13.624C21.5877 13.94 21.7517 14.186 21.9957 14.362C22.2437 14.534 22.5117 14.62 22.7997 14.62C23.0477 14.62 23.2737 14.56 23.4777 14.44C23.6857 14.32 23.8497 14.158 23.9697 13.954C24.0937 13.75 24.1557 13.524 24.1557 13.276C24.1557 12.904 24.0277 12.586 23.7717 12.322C23.5197 12.054 23.1957 11.92 22.7997 11.92C22.6797 11.92 22.5637 11.938 22.4517 11.974C22.3397 12.006 22.2317 12.052 22.1277 12.112L21.3957 10.828L24.1437 8.548L24.2637 8.896H20.2557V7.36H25.6557V8.896L23.5197 10.96L23.5077 10.504C24.0037 10.58 24.4217 10.754 24.7617 11.026C25.1057 11.294 25.3657 11.626 25.5417 12.022C25.7217 12.414 25.8117 12.832 25.8117 13.276C25.8117 13.82 25.6737 14.31 25.3977 14.746C25.1217 15.178 24.7557 15.522 24.2997 15.778C23.8437 16.03 23.3437 16.156 22.7997 16.156ZM8.74628 29V26.9C8.51828 27.012 8.26628 27.098 7.99028 27.158C7.71828 27.218 7.43428 27.248 7.13828 27.248C6.46628 27.248 5.93228 27.096 5.53628 26.792C5.14428 26.488 4.89028 26.048 4.77428 25.472C4.74228 25.308 4.71828 25.138 4.70228 24.962C4.69028 24.786 4.68228 24.626 4.67828 24.482C4.67828 24.334 4.67828 24.22 4.67828 24.14V22.52H6.33428V24.14C6.33428 24.216 6.33828 24.34 6.34628 24.512C6.35428 24.68 6.37828 24.848 6.41828 25.016C6.49028 25.296 6.61228 25.498 6.78428 25.622C6.96028 25.746 7.21028 25.808 7.53428 25.808C7.81028 25.808 8.04628 25.772 8.24228 25.7C8.44228 25.624 8.61028 25.532 8.74628 25.424V22.52H10.3903V29H8.74628ZM14.6015 29.18C13.9375 29.18 13.3515 29.038 12.8435 28.754C12.3395 28.466 11.9435 28.072 11.6555 27.572C11.3715 27.068 11.2295 26.492 11.2295 25.844C11.2295 25.136 11.3695 24.52 11.6495 23.996C11.9295 23.472 12.3155 23.066 12.8075 22.778C13.2995 22.486 13.8655 22.34 14.5055 22.34C15.1855 22.34 15.7635 22.5 16.2395 22.82C16.7155 23.14 17.0675 23.59 17.2955 24.17C17.5235 24.75 17.6035 25.432 17.5355 26.216H15.9215V25.616C15.9215 24.956 15.8155 24.482 15.6035 24.194C15.3955 23.902 15.0535 23.756 14.5775 23.756C14.0215 23.756 13.6115 23.926 13.3475 24.266C13.0875 24.602 12.9575 25.1 12.9575 25.76C12.9575 26.364 13.0875 26.832 13.3475 27.164C13.6115 27.492 13.9975 27.656 14.5055 27.656C14.8255 27.656 15.0995 27.586 15.3275 27.446C15.5555 27.306 15.7295 27.104 15.8495 26.84L17.4815 27.308C17.2375 27.9 16.8515 28.36 16.3235 28.688C15.7995 29.016 15.2255 29.18 14.6015 29.18ZM12.4535 26.216V25.004H16.7495V26.216H12.4535ZM21.5903 29.18C20.9463 29.18 20.4083 29.03 19.9763 28.73C19.5443 28.43 19.2183 28.022 18.9983 27.506C18.7823 26.99 18.6743 26.408 18.6743 25.76C18.6743 25.112 18.7823 24.53 18.9983 24.014C19.2143 23.498 19.5323 23.09 19.9523 22.79C20.3723 22.49 20.8903 22.34 21.5063 22.34C22.1263 22.34 22.6663 22.488 23.1263 22.784C23.5863 23.08 23.9423 23.486 24.1943 24.002C24.4503 24.514 24.5783 25.1 24.5783 25.76C24.5783 26.408 24.4523 26.99 24.2003 27.506C23.9523 28.022 23.6043 28.43 23.1563 28.73C22.7083 29.03 22.1863 29.18 21.5903 29.18ZM18.3983 31.88V22.52H19.8383V26.96H20.0423V31.88H18.3983ZM21.3263 27.728C21.6783 27.728 21.9663 27.64 22.1903 27.464C22.4143 27.288 22.5803 27.052 22.6883 26.756C22.7963 26.456 22.8503 26.124 22.8503 25.76C22.8503 25.4 22.7943 25.072 22.6823 24.776C22.5703 24.476 22.3963 24.238 22.1603 24.062C21.9283 23.882 21.6303 23.792 21.2663 23.792C20.9263 23.792 20.6503 23.874 20.4383 24.038C20.2303 24.202 20.0783 24.432 19.9823 24.728C19.8863 25.024 19.8383 25.368 19.8383 25.76C19.8383 26.152 19.8863 26.496 19.9823 26.792C20.0783 27.088 20.2343 27.318 20.4503 27.482C20.6703 27.646 20.9623 27.728 21.3263 27.728ZM25.4186 29V22.52H30.0986V24.044H27.0506V29H25.4186ZM32.4456 29.18C31.9816 29.18 31.5876 29.092 31.2636 28.916C30.9436 28.736 30.6996 28.498 30.5316 28.202C30.3676 27.902 30.2856 27.572 30.2856 27.212C30.2856 26.912 30.3316 26.638 30.4236 26.39C30.5156 26.142 30.6636 25.924 30.8676 25.736C31.0756 25.544 31.3536 25.384 31.7016 25.256C31.9416 25.168 32.2276 25.09 32.5596 25.022C32.8916 24.954 33.2676 24.89 33.6876 24.83C34.1076 24.766 34.5696 24.696 35.0736 24.62L34.4856 24.944C34.4856 24.56 34.3936 24.278 34.2096 24.098C34.0256 23.918 33.7176 23.828 33.2856 23.828C33.0456 23.828 32.7956 23.886 32.5356 24.002C32.2756 24.118 32.0936 24.324 31.9896 24.62L30.5136 24.152C30.6776 23.616 30.9856 23.18 31.4376 22.844C31.8896 22.508 32.5056 22.34 33.2856 22.34C33.8576 22.34 34.3656 22.428 34.8096 22.604C35.2536 22.78 35.5896 23.084 35.8176 23.516C35.9456 23.756 36.0216 23.996 36.0456 24.236C36.0696 24.476 36.0816 24.744 36.0816 25.04V29H34.6536V27.668L34.8576 27.944C34.5416 28.38 34.1996 28.696 33.8316 28.892C33.4676 29.084 33.0056 29.18 32.4456 29.18ZM32.7936 27.896C33.0936 27.896 33.3456 27.844 33.5496 27.74C33.7576 27.632 33.9216 27.51 34.0416 27.374C34.1656 27.238 34.2496 27.124 34.2936 27.032C34.3776 26.856 34.4256 26.652 34.4376 26.42C34.4536 26.184 34.4616 25.988 34.4616 25.832L34.9416 25.952C34.4576 26.032 34.0656 26.1 33.7656 26.156C33.4656 26.208 33.2236 26.256 33.0396 26.3C32.8556 26.344 32.6936 26.392 32.5536 26.444C32.3936 26.508 32.2636 26.578 32.1636 26.654C32.0676 26.726 31.9956 26.806 31.9476 26.894C31.9036 26.982 31.8816 27.08 31.8816 27.188C31.8816 27.336 31.9176 27.464 31.9896 27.572C32.0656 27.676 32.1716 27.756 32.3076 27.812C32.4436 27.868 32.6056 27.896 32.7936 27.896Z" fill="white"/>
</svg>
