<svg width="23" height="16" viewBox="0 0 23 16" fill="none" xmlns="http://www.w3.org/2000/svg">
<rect width="1.99946" height="2" transform="matrix(-1 -9.05535e-08 -0.000384759 -1 2.00293 9)" fill="#68AA40"/>
<rect width="1.99946" height="2" transform="matrix(-1 -9.05535e-08 -0.000384759 -1 11.0005 9)" fill="#68AA40"/>
<rect width="1.99946" height="2" transform="matrix(-1 -9.05535e-08 -0.000384759 -1 8.00146 9)" fill="#68AA40"/>
<rect width="1.99946" height="2" transform="matrix(-1 -9.05535e-08 -0.00038476 -1 16.999 9)" fill="#68AA40"/>
<rect width="1.99947" height="2" transform="matrix(-1 -9.05535e-08 -0.00038476 -1 19.998 9)" fill="#68AA40"/>
<rect width="1.99947" height="2" transform="matrix(-0.999999 -9.05292e-08 -0.000384863 -1 22.9971 9)" fill="#68AA40"/>
<rect width="1.99946" height="2" transform="matrix(-1 -9.05536e-08 -0.00038476 -1 19.998 6)" fill="#68AA40"/>
<rect width="1.99946" height="2" transform="matrix(-1 -9.05535e-08 -0.00038476 -1 17.9985 4)" fill="#68AA40"/>
<rect width="1.99947" height="2" transform="matrix(-1 -9.05535e-08 -0.00038476 -1 15.999 2)" fill="#68AA40"/>
<rect width="1.99947" height="2" transform="matrix(-1 -9.05535e-08 -0.00038476 -1 19.998 12)" fill="#68AA40"/>
<rect width="1.99946" height="2" transform="matrix(-1 -9.05535e-08 -0.00038476 -1 17.9985 14)" fill="#68AA40"/>
<rect width="1.99946" height="2" transform="matrix(-1 -9.05536e-08 -0.00038476 -1 15.999 16)" fill="#68AA40"/>
<rect width="1.99946" height="2" transform="matrix(-1 -9.05535e-08 -0.000384759 -1 5.00195 9)" fill="#68AA40"/>
<rect width="1.99947" height="2" transform="matrix(-1 -9.05535e-08 -0.00038476 -1 13.9995 9)" fill="#68AA40"/>
</svg>
